<?xml version="1.0" encoding="UTF-8" standalone="no"?>
<svg
   xmlns:dc="http://purl.org/dc/elements/1.1/"
   xmlns:cc="http://creativecommons.org/ns#"
   xmlns:rdf="http://www.w3.org/1999/02/22-rdf-syntax-ns#"
   xmlns:svg="http://www.w3.org/2000/svg"
   xmlns="http://www.w3.org/2000/svg"
   xmlns:sodipodi="http://sodipodi.sourceforge.net/DTD/sodipodi-0.dtd"
   xmlns:inkscape="http://www.inkscape.org/namespaces/inkscape"
   viewBox="0 0 45.748345 45.748345"
   version="1.1"
   id="svg4"
   sodipodi:docname="cloud.svg"
   width="45.748344"
   height="45.748344"
   inkscape:version="0.92.4 (5da689c313, 2019-01-14)">
  <metadata
     id="metadata10">
    <rdf:RDF>
      <cc:Work
         rdf:about="">
        <dc:format>image/svg+xml</dc:format>
        <dc:type
           rdf:resource="http://purl.org/dc/dcmitype/StillImage" />
        <dc:title></dc:title>
      </cc:Work>
    </rdf:RDF>
  </metadata>
  <defs
     id="defs8" />
  <sodipodi:namedview
     pagecolor="#ffffff"
     bordercolor="#666666"
     borderopacity="1"
     objecttolerance="10"
     gridtolerance="10"
     guidetolerance="10"
     inkscape:pageopacity="0"
     inkscape:pageshadow="2"
     inkscape:window-width="1920"
     inkscape:window-height="1027"
     id="namedview6"
     showgrid="false"
     fit-margin-top="0"
     fit-margin-left="0"
     fit-margin-right="0"
     fit-margin-bottom="0"
     inkscape:zoom="14.75"
     inkscape:cx="18.490376"
     inkscape:cy="24.691491"
     inkscape:window-x="-8"
     inkscape:window-y="-8"
     inkscape:window-maximized="1"
     inkscape:current-layer="svg4"
     inkscape:pagecheckerboard="true" />
  <path
     d="m 34.562117,19.902101 c 0.211757,-0.50062 0.330549,-1.04802 0.330549,-1.61881 0,-2.47968 -2.22088,-4.49151 -4.958243,-4.49151 -1.017471,0 -1.967799,0.28072 -2.752854,0.75795 -1.430662,-2.24575 -4.100881,-3.75228 -7.163627,-3.75228 -4.565713,0 -8.263736,3.34992 -8.263736,7.48584 0,0.12632 0.0052,0.25263 0.01032,0.37896 -2.8923082,0.9217 -4.9685723,3.4201 -4.9685723,6.35829 0,3.71952 3.3313183,6.73725 7.4373653,6.73725 h 19.00659 c 3.651538,0 6.61099,-2.68086 6.61099,-5.98867 0,-2.89608 -2.272529,-5.31494 -5.288792,-5.86702 z"
     id="path2"
     style="fill:#ffffff;fill-opacity:1;stroke-width:0.04915735"
     inkscape:connector-curvature="0" />
  <circle
     style="fill:none;fill-opacity:1;stroke:#ffffff;stroke-width:1.25300002;stroke-miterlimit:4;stroke-dasharray:none;stroke-opacity:1"
     id="path817"
     cx="22.874172"
     cy="22.874172"
     r="22.247673" />
</svg>
