<?xml version="1.0" encoding="UTF-8" standalone="no"?>
<svg
   xmlns:dc="http://purl.org/dc/elements/1.1/"
   xmlns:cc="http://creativecommons.org/ns#"
   xmlns:rdf="http://www.w3.org/1999/02/22-rdf-syntax-ns#"
   xmlns:svg="http://www.w3.org/2000/svg"
   xmlns="http://www.w3.org/2000/svg"
   xmlns:sodipodi="http://sodipodi.sourceforge.net/DTD/sodipodi-0.dtd"
   xmlns:inkscape="http://www.inkscape.org/namespaces/inkscape"
   viewBox="0 -256 45.224998 45.224998"
   id="svg3025"
   version="1.1"
   inkscape:version="0.92.4 (5da689c313, 2019-01-14)"
   width="45.224998"
   height="45.224998"
   sodipodi:docname="Fire.svg">
  <metadata
     id="metadata3035">
    <rdf:RDF>
      <cc:Work
         rdf:about="">
        <dc:format>image/svg+xml</dc:format>
        <dc:type
           rdf:resource="http://purl.org/dc/dcmitype/StillImage" />
        <dc:title></dc:title>
      </cc:Work>
    </rdf:RDF>
  </metadata>
  <defs
     id="defs3033" />
  <sodipodi:namedview
     pagecolor="#ffffff"
     bordercolor="#666666"
     borderopacity="1"
     objecttolerance="10"
     gridtolerance="10"
     guidetolerance="10"
     inkscape:pageopacity="0"
     inkscape:pageshadow="2"
     inkscape:window-width="1920"
     inkscape:window-height="1027"
     id="namedview3031"
     showgrid="false"
     inkscape:zoom="2.97995"
     inkscape:cx="-20.490482"
     inkscape:cy="51.356552"
     inkscape:window-x="-8"
     inkscape:window-y="-8"
     inkscape:window-maximized="1"
     inkscape:current-layer="svg3025"
     fit-margin-top="0"
     fit-margin-left="0"
     fit-margin-right="0"
     fit-margin-bottom="0" />
  <path
     style="opacity:1;fill:#ffffff;fill-opacity:1;stroke:#f6fbff;stroke-width:0.22499999;stroke-miterlimit:4;stroke-dasharray:none;stroke-opacity:1"
     d="m 22.6125,-255.8875 a 22.5,22.5 0 0 0 -22.5,22.5 22.5,22.5 0 0 0 22.5,22.5 22.5,22.5 0 0 0 22.5,-22.5 22.5,22.5 0 0 0 -22.5,-22.5 z m -0.56695,8.458 0.045,0.015 -0.015,-0.015 c 0.9,0.41 1.7,0.825 2.4,1.245 0.7,0.42 1.3925,0.92 2.0775,1.5 0.685,0.58 1.2525,1.1925 1.7025,1.8375 0.45,0.645 0.8125,1.3975 1.0875,2.2575 0.275,0.86 0.4125,1.78 0.4125,2.76 0,0.78 -0.1225,1.5 -0.3675,2.16 -0.245,0.66 -0.565,1.2225 -0.96,1.6875 -0.395,0.465 -0.8325,0.905 -1.3125,1.32 -0.48,0.415 -0.96,0.8025 -1.44,1.1625 -0.48,0.36 -0.9175,0.72 -1.3125,1.08 -0.395,0.36 -0.715,0.7675 -0.96,1.2225 -0.245,0.455 -0.3675,0.9375 -0.3675,1.4475 0,0.96 0.335,2.08 1.005,3.36 l -0.06,-0.015 0.015,0.015 c -0.9,-0.41 -1.7,-0.825 -2.4,-1.245 -0.7,-0.42 -1.3925,-0.92 -2.0775,-1.5 -0.685,-0.58 -1.2525,-1.1925 -1.7025,-1.8375 -0.45,-0.645 -0.8125,-1.3975 -1.0875,-2.2575 -0.275,-0.86 -0.4125,-1.78 -0.4125,-2.76 0,-0.78 0.1225,-1.5 0.3675,-2.16 0.245,-0.66 0.565,-1.2225 0.96,-1.6875 0.395,-0.465 0.8325,-0.905 1.3125,-1.32 0.48,-0.415 0.96,-0.8025 1.44,-1.1625 0.48,-0.36 0.9175,-0.72 1.3125,-1.08 0.395,-0.36 0.715,-0.7675 0.96,-1.2225 0.245,-0.455 0.3675,-0.9375 0.3675,-1.4475 0,-0.94 -0.33,-2.06 -0.99,-3.36 z m -9.09,24.96 h 20.16 c 0.13,0 0.2425,0.0475 0.3375,0.1425 0.095,0.095 0.1425,0.2075 0.1425,0.3375 v 0.96 c 0,0.13 -0.0475,0.2425 -0.1425,0.3375 -0.095,0.095 -0.2075,0.1425 -0.3375,0.1425 h -20.16 c -0.13,0 -0.2425,-0.0475 -0.3375,-0.1425 -0.095,-0.095 -0.1425,-0.2075 -0.1425,-0.3375 v -0.96 c 0,-0.13 0.0475,-0.2425 0.1425,-0.3375 0.095,-0.095 0.2075,-0.1425 0.3375,-0.1425 z"
     id="path816"
     inkscape:connector-curvature="0" />
  <g
     inkscape:groupmode="layer"
     id="layer1"
     inkscape:label="Layer 1"
     transform="translate(-1484.8875,-1484.8875)" />
</svg>
