<?xml version="1.0" encoding="UTF-8" standalone="no"?>
<svg
   xmlns:dc="http://purl.org/dc/elements/1.1/"
   xmlns:cc="http://creativecommons.org/ns#"
   xmlns:rdf="http://www.w3.org/1999/02/22-rdf-syntax-ns#"
   xmlns:svg="http://www.w3.org/2000/svg"
   xmlns="http://www.w3.org/2000/svg"
   xmlns:sodipodi="http://sodipodi.sourceforge.net/DTD/sodipodi-0.dtd"
   xmlns:inkscape="http://www.inkscape.org/namespaces/inkscape"
   viewBox="0 0 45.448819 45.448818"
   version="1.1"
   id="svg4"
   sodipodi:docname="wheel.svg"
   width="45.448818"
   height="45.448818"
   inkscape:version="0.92.4 (5da689c313, 2019-01-14)">
  <metadata
     id="metadata10">
    <rdf:RDF>
      <cc:Work
         rdf:about="">
        <dc:format>image/svg+xml</dc:format>
        <dc:type
           rdf:resource="http://purl.org/dc/dcmitype/StillImage" />
        <dc:title></dc:title>
      </cc:Work>
    </rdf:RDF>
  </metadata>
  <defs
     id="defs8" />
  <sodipodi:namedview
     pagecolor="#ffffff"
     bordercolor="#666666"
     borderopacity="1"
     objecttolerance="10"
     gridtolerance="10"
     guidetolerance="10"
     inkscape:pageopacity="0"
     inkscape:pageshadow="2"
     inkscape:window-width="640"
     inkscape:window-height="480"
     id="namedview6"
     showgrid="false"
     inkscape:pagecheckerboard="true"
     fit-margin-top="0"
     fit-margin-left="0"
     fit-margin-right="0"
     fit-margin-bottom="0"
     inkscape:zoom="5.2149125"
     inkscape:cx="19.724864"
     inkscape:cy="27.447146"
     inkscape:current-layer="svg4" />
  <path
     d="m 35.569642,26.110036 -2.369523,-1.316808 c 0.239173,-1.241874 0.239173,-2.515856 0,-3.757725 l 2.369523,-1.316817 c 0.272546,-0.14988 0.394917,-0.460349 0.305932,-0.749402 -0.61742,-1.905632 -1.668684,-3.62926 -3.042575,-5.063829 -0.211363,-0.219474 -0.556222,-0.273001 -0.823212,-0.12312 l -2.369529,1.316812 c -0.995642,-0.82435 -2.141479,-1.461346 -3.38186,-1.87887 v -2.628259 c 0,-0.299769 -0.216928,-0.562057 -0.522859,-0.6262971 -2.041346,-0.438938 -4.132763,-0.417519 -6.074002,0 -0.305923,0.06424 -0.522845,0.3265281 -0.522845,0.6262971 v 2.633615 c -1.234838,0.42288 -2.380659,1.059876 -3.381866,1.878865 l -2.363962,-1.316817 c -0.272565,-0.14988 -0.611854,-0.1017 -0.823226,0.123124 -1.373877,1.429219 -2.425142,3.152847 -3.0425619,5.063835 -0.09456,0.289058 0.0334,0.599522 0.3059271,0.749402 l 2.3695288,1.316807 c -0.239174,1.241874 -0.239174,2.515857 0,3.757726 l -2.3695288,1.316816 c -0.2725551,0.14988 -0.3949175,0.460344 -0.3059271,0.749404 0.6174199,1.90563 1.6686849,3.629259 3.0425619,5.063829 0.211372,0.219471 0.556232,0.273004 0.823226,0.123119 l 2.369523,-1.316808 c 0.995646,0.824346 2.141467,1.461342 3.381865,1.878866 v 2.633614 c 0,0.299761 0.216923,0.562057 0.522846,0.626298 2.041355,0.438933 4.132777,0.417519 6.074006,0 0.305922,-0.06424 0.52285,-0.326537 0.52285,-0.626298 v -2.633614 c 1.234825,-0.422885 2.380662,-1.059877 3.381865,-1.878866 l 2.369533,1.316808 c 0.272546,0.149885 0.611849,0.101705 0.823216,-0.123119 1.373873,-1.429215 2.425151,-3.152852 3.042557,-5.063829 0.08343,-0.294415 -0.03896,-0.604879 -0.311483,-0.754759 z m -12.8711,1.086642 c -2.452963,0 -4.449815,-1.921691 -4.449815,-4.28232 0,-2.36062 1.996852,-4.282309 4.449815,-4.282309 2.452959,0 4.44982,1.921689 4.44982,4.282309 0,2.360629 -1.996861,4.28232 -4.44982,4.28232 z"
     id="path2"
     style="fill:#ffffff;fill-opacity:1;stroke-width:0.05456576"
     inkscape:connector-curvature="0" />
  <circle
     style="opacity:1;fill:none;fill-opacity:1;stroke:#ffffff;stroke-width:2.36965275;stroke-miterlimit:4;stroke-dasharray:none;stroke-opacity:1"
     id="path822"
     cx="22.724409"
     cy="22.724409"
     r="21.539583" />
</svg>
